<svg version="1.1" viewBox="0.0 0.0 96.0 96.0" fill="none" stroke="none" stroke-linecap="square" stroke-miterlimit="10" xmlns:xlink="http://www.w3.org/1999/xlink" xmlns="http://www.w3.org/2000/svg"><clipPath id="p.0"><path d="m0 0l96.0 0l0 96.0l-96.0 0l0 -96.0z" clip-rule="nonzero"/></clipPath><g clip-path="url(#p.0)"><path fill="#000000" fill-opacity="0.0" d="m0 0l96.0 0l0 96.0l-96.0 0z" fill-rule="evenodd"/><path fill="#000000" fill-opacity="0.0" d="m10.000424 39.862873l0 0c0 -5.1317406 4.160098 -9.291838 9.291839 -9.291838l37.168133 0l0 0c2.4643478 0 4.8277664 0.97895813 6.570324 2.7215176c1.7425575 1.7425575 2.7215157 4.1059723 2.7215157 6.57032l0 37.16624c0 5.1317444 -4.160099 9.29184 -9.29184 9.29184l-37.168133 0c-5.1317406 0 -9.291839 -4.160095 -9.291839 -9.29184z" fill-rule="evenodd"/><path stroke="#f3f3f3" stroke-width="2.0" stroke-linejoin="round" stroke-linecap="butt" d="m10.000424 39.862873l0 0c0 -5.1317406 4.160098 -9.291838 9.291839 -9.291838l37.168133 0l0 0c2.4643478 0 4.8277664 0.97895813 6.570324 2.7215176c1.7425575 1.7425575 2.7215157 4.1059723 2.7215157 6.57032l0 37.16624c0 5.1317444 -4.160099 9.29184 -9.29184 9.29184l-37.168133 0c-5.1317406 0 -9.291839 -4.160095 -9.291839 -9.29184z" fill-rule="evenodd"/><path fill="#000000" fill-opacity="0.0" d="m30.249172 18.972141l0 0c0 -5.1317425 4.160099 -9.291841 9.29184 -9.291841l37.168133 0l0 0c2.4643478 0 4.8277664 0.9789591 6.57032 2.7215166c1.7425613 1.7425585 2.7215195 4.105974 2.7215195 6.570324l0 37.16624c0 5.1317406 -4.160095 9.29184 -9.29184 9.29184l-37.168133 0c-5.1317406 0 -9.29184 -4.160099 -9.29184 -9.29184z" fill-rule="evenodd"/><path stroke="#f3f3f3" stroke-width="2.0" stroke-linejoin="round" stroke-linecap="butt" d="m30.249172 18.972141l0 0c0 -5.1317425 4.160099 -9.291841 9.29184 -9.291841l37.168133 0l0 0c2.4643478 0 4.8277664 0.9789591 6.57032 2.7215166c1.7425613 1.7425585 2.7215195 4.105974 2.7215195 6.570324l0 37.16624c0 5.1317406 -4.160095 9.29184 -9.29184 9.29184l-37.168133 0c-5.1317406 0 -9.29184 -4.160099 -9.29184 -9.29184z" fill-rule="evenodd"/><path fill="#000000" fill-opacity="0.0" d="m34.724804 24.810211l0 11.707481" fill-rule="evenodd"/><path stroke="#f3f3f3" stroke-width="1.0" stroke-linejoin="round" stroke-linecap="butt" d="m34.724804 24.810211l0 11.707481" fill-rule="evenodd"/><path fill="#000000" fill-opacity="0.0" d="m25.881947 24.810211l0 11.707481" fill-rule="evenodd"/><path stroke="#f3f3f3" stroke-width="1.0" stroke-linejoin="round" stroke-linecap="butt" d="m25.881947 24.810211l0 11.707481" fill-rule="evenodd"/><path fill="#000000" fill-opacity="0.0" d="m70.127205 58.73249l0 11.707481" fill-rule="evenodd"/><path stroke="#f3f3f3" stroke-width="1.0" stroke-linejoin="round" stroke-linecap="butt" d="m70.127205 58.73249l0 11.707481" fill-rule="evenodd"/><path fill="#000000" fill-opacity="0.0" d="m61.284348 58.73249l0 11.707481" fill-rule="evenodd"/><path stroke="#f3f3f3" stroke-width="1.0" stroke-linejoin="round" stroke-linecap="butt" d="m61.284348 58.73249l0 11.707481" fill-rule="evenodd"/></g></svg>